<svg width="262" height="42" viewBox="0 0 262 42" fill="none" xmlns="http://www.w3.org/2000/svg">
<path d="M61.2692 29.364C61.2692 30.036 61.1492 30.684 60.9092 31.308C60.6692 31.908 60.2732 32.4 59.7212 32.784C59.1932 33.168 58.4492 33.36 57.4892 33.36C56.1692 33.36 55.2332 32.988 54.6812 32.244C54.1292 31.5 53.8172 30.648 53.7452 29.688C53.6732 29.616 53.6372 29.508 53.6372 29.364C53.6372 29.052 53.7932 28.896 54.1052 28.896C54.4172 28.896 54.5732 29.052 54.5732 29.364C54.5732 29.508 54.5372 29.616 54.4652 29.688C54.4892 30.504 54.7292 31.2 55.1852 31.776C55.6412 32.352 56.4092 32.64 57.4892 32.64C58.6412 32.64 59.4332 32.304 59.8652 31.632C60.3212 30.96 60.5492 30.204 60.5492 29.364V24.864C60.5492 23.592 60.0812 22.524 59.1452 21.66L54.9332 17.916C54.3332 17.388 53.9612 16.848 53.8172 16.296C53.6732 15.744 53.6012 15.192 53.6012 14.64V11.544C53.6012 10.848 53.7212 10.188 53.9612 9.564C54.2012 8.94 54.5972 8.436 55.1492 8.052C55.7012 7.644 56.4452 7.44 57.3812 7.44C58.7252 7.44 59.6732 7.824 60.2252 8.592C60.7772 9.36 61.0772 10.236 61.1252 11.22C61.1972 11.292 61.2332 11.4 61.2332 11.544C61.2332 11.856 61.0772 12.012 60.7652 12.012C60.4532 12.012 60.2972 11.856 60.2972 11.544C60.2972 11.424 60.3332 11.328 60.4052 11.256C60.3572 10.488 60.1052 9.78 59.6492 9.132C59.2172 8.484 58.4612 8.16 57.3812 8.16C56.6132 8.16 56.0012 8.328 55.5452 8.664C55.1132 9 54.8012 9.432 54.6092 9.96C54.4172 10.464 54.3212 10.992 54.3212 11.544V14.64C54.3452 15.24 54.4292 15.78 54.5732 16.26C54.7412 16.716 55.0292 17.124 55.4372 17.484L59.6852 21.228C60.3092 21.828 60.7292 22.44 60.9452 23.064C61.1612 23.664 61.2692 24.264 61.2692 24.864V29.364ZM70.4717 32.28C70.5917 32.208 70.6997 32.172 70.7957 32.172C71.1077 32.172 71.2637 32.328 71.2637 32.64C71.2637 32.952 71.1077 33.108 70.7957 33.108C70.6997 33.108 70.5917 33.072 70.4717 33H63.7757V11.868C63.7757 11.172 63.8837 10.524 64.0997 9.924C64.3397 9.3 64.7357 8.796 65.2877 8.412C65.8397 8.004 66.5957 7.8 67.5557 7.8H70.4717C70.5917 7.728 70.6997 7.692 70.7957 7.692C71.1077 7.692 71.2637 7.848 71.2637 8.16C71.2637 8.472 71.1077 8.628 70.7957 8.628C70.6997 8.628 70.5917 8.592 70.4717 8.52H67.5557C66.7637 8.52 66.1397 8.688 65.6837 9.024C65.2517 9.336 64.9397 9.756 64.7477 10.284C64.5797 10.788 64.4957 11.316 64.4957 11.868V15H69.4277C69.5477 14.928 69.6557 14.892 69.7517 14.892C70.0637 14.892 70.2197 15.048 70.2197 15.36C70.2197 15.672 70.0637 15.828 69.7517 15.828C69.6557 15.828 69.5477 15.792 69.4277 15.72H64.4957V32.28H70.4717ZM80.8613 29.256C80.8613 29.928 80.7413 30.588 80.5013 31.236C80.2613 31.86 79.8653 32.376 79.3133 32.784C78.7853 33.168 78.0533 33.36 77.1173 33.36C76.1573 33.36 75.4013 33.168 74.8493 32.784C74.3213 32.376 73.9373 31.86 73.6973 31.236C73.4813 30.588 73.3733 29.928 73.3733 29.256V8.232C73.3013 8.112 73.2653 8.004 73.2653 7.908C73.2653 7.596 73.4213 7.44 73.7333 7.44C74.0453 7.44 74.2013 7.596 74.2013 7.908C74.2013 8.004 74.1653 8.112 74.0933 8.232V29.256C74.0933 29.784 74.1773 30.312 74.3453 30.84C74.5373 31.368 74.8493 31.8 75.2813 32.136C75.7373 32.472 76.3493 32.64 77.1173 32.64C77.8853 32.64 78.4853 32.472 78.9173 32.136C79.3733 31.8 79.6853 31.368 79.8533 30.84C80.0453 30.312 80.1413 29.784 80.1413 29.256V8.232C80.0693 8.112 80.0333 8.004 80.0333 7.908C80.0333 7.596 80.1893 7.44 80.5013 7.44C80.8133 7.44 80.9693 7.596 80.9693 7.908C80.9693 8.004 80.9333 8.112 80.8613 8.232V29.256ZM90.5096 29.364C90.5096 30.204 90.7256 30.96 91.1576 31.632C91.5896 32.304 92.3816 32.64 93.5336 32.64C94.6376 32.64 95.4056 32.352 95.8376 31.776C96.2936 31.2 96.5336 30.504 96.5576 29.688C96.4856 29.616 96.4496 29.508 96.4496 29.364C96.4496 29.052 96.6056 28.896 96.9176 28.896C97.2296 28.896 97.3856 29.052 97.3856 29.364C97.3856 29.508 97.3496 29.616 97.2776 29.688C97.2536 30.648 96.9536 31.5 96.3776 32.244C95.8256 32.988 94.8776 33.36 93.5336 33.36C92.5736 33.36 91.8176 33.168 91.2656 32.784C90.7376 32.4 90.3536 31.908 90.1136 31.308C89.8976 30.684 89.7896 30.036 89.7896 29.364V11.544C89.7896 10.848 89.8976 10.188 90.1136 9.564C90.3536 8.94 90.7376 8.436 91.2656 8.052C91.8176 7.644 92.5736 7.44 93.5336 7.44C94.8776 7.44 95.8256 7.824 96.3776 8.592C96.9536 9.36 97.2536 10.236 97.2776 11.22C97.3496 11.292 97.3856 11.4 97.3856 11.544C97.3856 11.856 97.2296 12.012 96.9176 12.012C96.6056 12.012 96.4496 11.856 96.4496 11.544C96.4496 11.424 96.4856 11.328 96.5576 11.256C96.5336 10.488 96.2936 9.78 95.8376 9.132C95.4056 8.484 94.6376 8.16 93.5336 8.16C92.7656 8.16 92.1536 8.328 91.6976 8.664C91.2656 9 90.9536 9.432 90.7616 9.96C90.5936 10.464 90.5096 10.992 90.5096 11.544V29.364ZM106.735 29.364C106.735 30.036 106.615 30.684 106.375 31.308C106.135 31.908 105.739 32.4 105.187 32.784C104.659 33.168 103.927 33.36 102.991 33.36C102.031 33.36 101.275 33.168 100.723 32.784C100.195 32.4 99.8106 31.908 99.5706 31.308C99.3546 30.684 99.2466 30.036 99.2466 29.364V11.544C99.2466 10.848 99.3546 10.188 99.5706 9.564C99.8106 8.94 100.195 8.436 100.723 8.052C101.275 7.644 102.031 7.44 102.991 7.44C103.927 7.44 104.659 7.644 105.187 8.052C105.739 8.436 106.135 8.94 106.375 9.564C106.615 10.188 106.735 10.848 106.735 11.544V29.364ZM99.9666 29.364C99.9666 30.204 100.183 30.96 100.615 31.632C101.047 32.304 101.839 32.64 102.991 32.64C104.143 32.64 104.935 32.304 105.367 31.632C105.799 30.96 106.015 30.204 106.015 29.364V11.544C106.015 10.992 105.919 10.464 105.727 9.96C105.559 9.432 105.247 9 104.791 8.664C104.359 8.328 103.759 8.16 102.991 8.16C102.223 8.16 101.611 8.328 101.155 8.664C100.723 9 100.411 9.432 100.219 9.96C100.051 10.464 99.9666 10.992 99.9666 11.544V29.364ZM117.214 32.604C117.286 32.676 117.322 32.772 117.322 32.892C117.322 33.204 117.166 33.36 116.854 33.36C116.542 33.36 116.386 33.204 116.386 32.892C116.386 32.772 116.422 32.676 116.494 32.604V8.808L110.446 15.252V32.604C110.518 32.676 110.554 32.772 110.554 32.892C110.554 33.204 110.398 33.36 110.086 33.36C109.774 33.36 109.618 33.204 109.618 32.892C109.618 32.772 109.654 32.676 109.726 32.604V8.232C109.654 8.112 109.618 8.004 109.618 7.908C109.618 7.596 109.774 7.44 110.086 7.44C110.398 7.44 110.554 7.596 110.554 7.908C110.554 8.004 110.518 8.112 110.446 8.232V14.244L116.494 7.8H117.214V32.604ZM123.332 32.604C123.404 32.676 123.44 32.772 123.44 32.892C123.44 33.204 123.284 33.36 122.972 33.36C122.66 33.36 122.504 33.204 122.504 32.892C122.504 32.772 122.54 32.676 122.612 32.604V8.52H119.876C119.78 8.592 119.684 8.628 119.588 8.628C119.276 8.628 119.12 8.472 119.12 8.16C119.12 7.848 119.276 7.692 119.588 7.692C119.708 7.692 119.804 7.728 119.876 7.8H126.032C126.152 7.728 126.26 7.692 126.356 7.692C126.668 7.692 126.824 7.848 126.824 8.16C126.824 8.472 126.668 8.628 126.356 8.628C126.284 8.628 126.176 8.592 126.032 8.52H123.332V32.604ZM135.981 32.46C136.077 32.46 136.161 32.52 136.233 32.64C136.401 32.904 136.341 33.12 136.053 33.288C135.957 33.36 135.837 33.372 135.693 33.324C135.573 33.3 135.489 33.24 135.441 33.144C135.393 33.048 135.369 32.94 135.369 32.82L131.229 25.8H129.465V32.604C129.537 32.676 129.573 32.772 129.573 32.892C129.573 33.204 129.417 33.36 129.105 33.36C128.793 33.36 128.637 33.204 128.637 32.892C128.637 32.772 128.673 32.676 128.745 32.604V7.8H132.597C133.557 7.8 134.301 8.004 134.829 8.412C135.381 8.796 135.765 9.3 135.981 9.924C136.221 10.548 136.341 11.208 136.341 11.904V21.804C136.341 22.476 136.221 23.124 135.981 23.748C135.765 24.348 135.381 24.84 134.829 25.224C134.301 25.608 133.557 25.8 132.597 25.8H132.057L135.981 32.46ZM132.597 25.08C133.749 25.08 134.541 24.744 134.973 24.072C135.405 23.4 135.621 22.644 135.621 21.804V11.904C135.621 11.352 135.525 10.824 135.333 10.32C135.165 9.792 134.853 9.36 134.397 9.024C133.965 8.688 133.365 8.52 132.597 8.52H129.465V25.08H132.597ZM146.356 29.364C146.356 30.036 146.236 30.684 145.996 31.308C145.756 31.908 145.36 32.4 144.808 32.784C144.28 33.168 143.548 33.36 142.612 33.36C141.652 33.36 140.896 33.168 140.344 32.784C139.816 32.4 139.432 31.908 139.192 31.308C138.976 30.684 138.868 30.036 138.868 29.364V11.544C138.868 10.848 138.976 10.188 139.192 9.564C139.432 8.94 139.816 8.436 140.344 8.052C140.896 7.644 141.652 7.44 142.612 7.44C143.548 7.44 144.28 7.644 144.808 8.052C145.36 8.436 145.756 8.94 145.996 9.564C146.236 10.188 146.356 10.848 146.356 11.544V29.364ZM139.588 29.364C139.588 30.204 139.804 30.96 140.236 31.632C140.668 32.304 141.46 32.64 142.612 32.64C143.764 32.64 144.556 32.304 144.988 31.632C145.42 30.96 145.636 30.204 145.636 29.364V11.544C145.636 10.992 145.54 10.464 145.348 9.96C145.18 9.432 144.868 9 144.412 8.664C143.98 8.328 143.38 8.16 142.612 8.16C141.844 8.16 141.232 8.328 140.776 8.664C140.344 9 140.032 9.432 139.84 9.96C139.672 10.464 139.588 10.992 139.588 11.544V29.364ZM156.295 32.28C156.415 32.208 156.523 32.172 156.619 32.172C156.931 32.172 157.087 32.328 157.087 32.64C157.087 32.952 156.931 33.108 156.619 33.108C156.523 33.108 156.415 33.072 156.295 33H149.347V8.232C149.275 8.112 149.239 8.004 149.239 7.908C149.239 7.596 149.395 7.44 149.707 7.44C150.019 7.44 150.175 7.596 150.175 7.908C150.175 8.004 150.139 8.112 150.067 8.232V32.28H156.295ZM165.394 32.28C165.514 32.208 165.622 32.172 165.718 32.172C166.03 32.172 166.186 32.328 166.186 32.64C166.186 32.952 166.03 33.108 165.718 33.108C165.622 33.108 165.514 33.072 165.394 33H158.698V11.868C158.698 11.172 158.806 10.524 159.022 9.924C159.262 9.3 159.658 8.796 160.21 8.412C160.762 8.004 161.518 7.8 162.478 7.8H165.394C165.514 7.728 165.622 7.692 165.718 7.692C166.03 7.692 166.186 7.848 166.186 8.16C166.186 8.472 166.03 8.628 165.718 8.628C165.622 8.628 165.514 8.592 165.394 8.52H162.478C161.686 8.52 161.062 8.688 160.606 9.024C160.174 9.336 159.862 9.756 159.67 10.284C159.502 10.788 159.418 11.316 159.418 11.868V15H164.35C164.47 14.928 164.578 14.892 164.674 14.892C164.986 14.892 165.142 15.048 165.142 15.36C165.142 15.672 164.986 15.828 164.674 15.828C164.578 15.828 164.47 15.792 164.35 15.72H159.418V32.28H165.394ZM174.992 32.604C175.064 32.676 175.1 32.772 175.1 32.892C175.1 33.204 174.944 33.36 174.632 33.36C174.32 33.36 174.164 33.204 174.164 32.892C174.164 32.772 174.2 32.676 174.272 32.604V11.868C174.272 11.172 174.38 10.524 174.596 9.924C174.836 9.3 175.232 8.796 175.784 8.412C176.336 8.004 177.092 7.8 178.052 7.8H180.968C181.088 7.728 181.196 7.692 181.292 7.692C181.604 7.692 181.76 7.848 181.76 8.16C181.76 8.472 181.604 8.628 181.292 8.628C181.196 8.628 181.088 8.592 180.968 8.52H178.052C177.26 8.52 176.636 8.688 176.18 9.024C175.748 9.336 175.436 9.756 175.244 10.284C175.076 10.788 174.992 11.316 174.992 11.868V15H179.924C180.044 14.928 180.152 14.892 180.248 14.892C180.56 14.892 180.716 15.048 180.716 15.36C180.716 15.672 180.56 15.828 180.248 15.828C180.152 15.828 180.044 15.792 179.924 15.72H174.992V32.604ZM184.239 32.604C184.311 32.676 184.347 32.772 184.347 32.892C184.347 33.204 184.191 33.36 183.879 33.36C183.567 33.36 183.411 33.204 183.411 32.892C183.411 32.772 183.447 32.676 183.519 32.604V8.232C183.447 8.112 183.411 8.004 183.411 7.908C183.411 7.596 183.567 7.44 183.879 7.44C184.191 7.44 184.347 7.596 184.347 7.908C184.347 8.004 184.311 8.112 184.239 8.232V32.604ZM194.839 32.604C194.911 32.676 194.947 32.772 194.947 32.892C194.947 33.204 194.791 33.36 194.479 33.36C194.167 33.36 194.011 33.204 194.011 32.892C194.011 32.772 194.047 32.676 194.119 32.604V8.808L188.071 15.252V32.604C188.143 32.676 188.179 32.772 188.179 32.892C188.179 33.204 188.023 33.36 187.711 33.36C187.399 33.36 187.243 33.204 187.243 32.892C187.243 32.772 187.279 32.676 187.351 32.604V8.232C187.279 8.112 187.243 8.004 187.243 7.908C187.243 7.596 187.399 7.44 187.711 7.44C188.023 7.44 188.179 7.596 188.179 7.908C188.179 8.004 188.143 8.112 188.071 8.232V14.244L194.119 7.8H194.839V32.604ZM205.385 32.604C205.457 32.676 205.493 32.772 205.493 32.892C205.493 33.204 205.337 33.36 205.025 33.36C204.713 33.36 204.557 33.204 204.557 32.892C204.557 32.772 204.593 32.676 204.665 32.604V15.72H198.617V32.604C198.689 32.676 198.725 32.772 198.725 32.892C198.725 33.204 198.569 33.36 198.257 33.36C197.945 33.36 197.789 33.204 197.789 32.892C197.789 32.772 197.825 32.676 197.897 32.604V11.904C197.897 11.208 198.005 10.548 198.221 9.924C198.461 9.3 198.857 8.796 199.409 8.412C199.961 8.004 200.717 7.8 201.677 7.8H205.385V32.604ZM204.665 15V8.52H201.677C200.885 8.52 200.261 8.688 199.805 9.024C199.373 9.36 199.061 9.792 198.869 10.32C198.701 10.824 198.617 11.352 198.617 11.904V15H204.665ZM215.932 32.604C216.004 32.676 216.04 32.772 216.04 32.892C216.04 33.204 215.884 33.36 215.572 33.36C215.26 33.36 215.104 33.204 215.104 32.892C215.104 32.772 215.14 32.676 215.212 32.604V8.808L209.164 15.252V32.604C209.236 32.676 209.272 32.772 209.272 32.892C209.272 33.204 209.116 33.36 208.804 33.36C208.492 33.36 208.336 33.204 208.336 32.892C208.336 32.772 208.372 32.676 208.444 32.604V8.232C208.372 8.112 208.336 8.004 208.336 7.908C208.336 7.596 208.492 7.44 208.804 7.44C209.116 7.44 209.272 7.596 209.272 7.908C209.272 8.004 209.236 8.112 209.164 8.232V14.244L215.212 7.8H215.932V32.604ZM219.639 29.364C219.639 30.204 219.855 30.96 220.287 31.632C220.719 32.304 221.511 32.64 222.663 32.64C223.767 32.64 224.535 32.352 224.967 31.776C225.423 31.2 225.663 30.504 225.687 29.688C225.615 29.616 225.579 29.508 225.579 29.364C225.579 29.052 225.735 28.896 226.047 28.896C226.359 28.896 226.515 29.052 226.515 29.364C226.515 29.508 226.479 29.616 226.407 29.688C226.383 30.648 226.083 31.5 225.507 32.244C224.955 32.988 224.007 33.36 222.663 33.36C221.703 33.36 220.947 33.168 220.395 32.784C219.867 32.4 219.483 31.908 219.243 31.308C219.027 30.684 218.919 30.036 218.919 29.364V11.544C218.919 10.848 219.027 10.188 219.243 9.564C219.483 8.94 219.867 8.436 220.395 8.052C220.947 7.644 221.703 7.44 222.663 7.44C224.007 7.44 224.955 7.824 225.507 8.592C226.083 9.36 226.383 10.236 226.407 11.22C226.479 11.292 226.515 11.4 226.515 11.544C226.515 11.856 226.359 12.012 226.047 12.012C225.735 12.012 225.579 11.856 225.579 11.544C225.579 11.424 225.615 11.328 225.687 11.256C225.663 10.488 225.423 9.78 224.967 9.132C224.535 8.484 223.767 8.16 222.663 8.16C221.895 8.16 221.283 8.328 220.827 8.664C220.395 9 220.083 9.432 219.891 9.96C219.723 10.464 219.639 10.992 219.639 11.544V29.364ZM235.144 32.28C235.264 32.208 235.372 32.172 235.468 32.172C235.78 32.172 235.936 32.328 235.936 32.64C235.936 32.952 235.78 33.108 235.468 33.108C235.372 33.108 235.264 33.072 235.144 33H228.448V11.868C228.448 11.172 228.556 10.524 228.772 9.924C229.012 9.3 229.408 8.796 229.96 8.412C230.512 8.004 231.268 7.8 232.228 7.8H235.144C235.264 7.728 235.372 7.692 235.468 7.692C235.78 7.692 235.936 7.848 235.936 8.16C235.936 8.472 235.78 8.628 235.468 8.628C235.372 8.628 235.264 8.592 235.144 8.52H232.228C231.436 8.52 230.812 8.688 230.356 9.024C229.924 9.336 229.612 9.756 229.42 10.284C229.252 10.788 229.168 11.316 229.168 11.868V15H234.1C234.22 14.928 234.328 14.892 234.424 14.892C234.736 14.892 234.892 15.048 234.892 15.36C234.892 15.672 234.736 15.828 234.424 15.828C234.328 15.828 234.22 15.792 234.1 15.72H229.168V32.28H235.144ZM238.801 32.604C238.873 32.676 238.909 32.772 238.909 32.892C238.909 33.204 238.753 33.36 238.441 33.36C238.129 33.36 237.973 33.204 237.973 32.892C237.973 32.772 238.009 32.676 238.081 32.604V8.232C238.009 8.112 237.973 8.004 237.973 7.908C237.973 7.596 238.129 7.44 238.441 7.44C238.753 7.44 238.909 7.596 238.909 7.908C238.909 8.004 238.873 8.112 238.801 8.232V32.604ZM249.149 32.46C249.245 32.46 249.329 32.52 249.401 32.64C249.569 32.904 249.509 33.12 249.221 33.288C249.125 33.36 249.005 33.372 248.861 33.324C248.741 33.3 248.657 33.24 248.609 33.144C248.561 33.048 248.537 32.94 248.537 32.82L244.397 25.8H242.633V32.604C242.705 32.676 242.741 32.772 242.741 32.892C242.741 33.204 242.585 33.36 242.273 33.36C241.961 33.36 241.805 33.204 241.805 32.892C241.805 32.772 241.841 32.676 241.913 32.604V7.8H245.765C246.725 7.8 247.469 8.004 247.997 8.412C248.549 8.796 248.933 9.3 249.149 9.924C249.389 10.548 249.509 11.208 249.509 11.904V21.804C249.509 22.476 249.389 23.124 249.149 23.748C248.933 24.348 248.549 24.84 247.997 25.224C247.469 25.608 246.725 25.8 245.765 25.8H245.225L249.149 32.46ZM245.765 25.08C246.917 25.08 247.709 24.744 248.141 24.072C248.573 23.4 248.789 22.644 248.789 21.804V11.904C248.789 11.352 248.693 10.824 248.501 10.32C248.333 9.792 248.021 9.36 247.565 9.024C247.133 8.688 246.533 8.52 245.765 8.52H242.633V25.08H245.765ZM259.524 29.364C259.524 30.036 259.404 30.684 259.164 31.308C258.924 31.908 258.528 32.4 257.976 32.784C257.448 33.168 256.716 33.36 255.78 33.36C254.82 33.36 254.064 33.168 253.512 32.784C252.984 32.4 252.6 31.908 252.36 31.308C252.144 30.684 252.036 30.036 252.036 29.364V11.544C252.036 10.848 252.144 10.188 252.36 9.564C252.6 8.94 252.984 8.436 253.512 8.052C254.064 7.644 254.82 7.44 255.78 7.44C256.716 7.44 257.448 7.644 257.976 8.052C258.528 8.436 258.924 8.94 259.164 9.564C259.404 10.188 259.524 10.848 259.524 11.544V29.364ZM252.756 29.364C252.756 30.204 252.972 30.96 253.404 31.632C253.836 32.304 254.628 32.64 255.78 32.64C256.932 32.64 257.724 32.304 258.156 31.632C258.588 30.96 258.804 30.204 258.804 29.364V11.544C258.804 10.992 258.708 10.464 258.516 9.96C258.348 9.432 258.036 9 257.58 8.664C257.148 8.328 256.548 8.16 255.78 8.16C255.012 8.16 254.4 8.328 253.944 8.664C253.512 9 253.2 9.432 253.008 9.96C252.84 10.464 252.756 10.992 252.756 11.544V29.364Z" fill="url(#paint0_linear_19_33)"/>
<path d="M46.1782 21C46.1782 32.2735 36.0037 41.5 23.3391 41.5C10.6744 41.5 0.5 32.2735 0.5 21C0.5 9.72652 10.6744 0.5 23.3391 0.5C36.0037 0.5 46.1782 9.72652 46.1782 21Z" stroke="url(#paint1_linear_19_33)"/>
<g clip-path="url(#clip0_19_33)">
<path d="M39.1496 11.3076L24.845 26.6538L17.3163 18.5768L6.02319 30.6922" stroke="url(#paint2_linear_19_33)" stroke-width="2" stroke-linecap="round" stroke-linejoin="round"/>
<path d="M30.115 11.3076H39.1495V20.9999" stroke="url(#paint3_linear_19_33)" stroke-width="2" stroke-linecap="round" stroke-linejoin="round"/>
</g>
<defs>
<linearGradient id="paint0_linear_19_33" x1="52.7012" y1="21" x2="262" y2="21" gradientUnits="userSpaceOnUse">
<stop stop-color="#8301C0"/>
<stop offset="0.9999" stop-color="#4A016D"/>
</linearGradient>
<linearGradient id="paint1_linear_19_33" x1="23.3391" y1="0" x2="23.3391" y2="42" gradientUnits="userSpaceOnUse">
<stop stop-color="#8501C3"/>
<stop offset="1" stop-color="#4A016D"/>
</linearGradient>
<linearGradient id="paint2_linear_19_33" x1="39.1496" y1="11.3076" x2="4.99623" y2="28.6724" gradientUnits="userSpaceOnUse">
<stop stop-color="#3D005A"/>
<stop offset="1" stop-color="#8800C7"/>
</linearGradient>
<linearGradient id="paint3_linear_19_33" x1="34.6322" y1="11.3076" x2="34.6322" y2="20.9999" gradientUnits="userSpaceOnUse">
<stop stop-color="#4A016D"/>
<stop offset="1" stop-color="#8701C6"/>
</linearGradient>
<clipPath id="clip0_19_33">
<rect width="36.1379" height="38.7692" fill="white" transform="translate(4.51733 1.61536)"/>
</clipPath>
</defs>
</svg>
